<?xml version="1.0" encoding="utf-8"?>
<!-- Generator: Adobe Illustrator 23.0.1, SVG Export Plug-In . SVG Version: 6.00 Build 0)  -->
<svg version="1.1" id="Livello_1" xmlns="http://www.w3.org/2000/svg" xmlns:xlink="http://www.w3.org/1999/xlink" x="0px" y="0px"
	 width="482.3px" height="500px" viewBox="0 0 482.3 500" enable-background="new 0 0 482.3 500" xml:space="preserve">
<path fill="#0050A0" d="M350.4,449.6c2.4,1.4,4.1,4,4.1,6.9c0,0,0,37.8,0,42.9h32.9v-13l-0.3-0.1c-1.4,2.4-4,4.1-6.9,4.1
	c0,0-7.8,0-14.6,0v-11.8H383v-8.7h-17.5v-11.7h22.2v-9h-37.2L350.4,449.6z M136.7,449.6c2.4,1.4,4.1,4,4.1,6.9c0,0,0,37.8,0,42.9
	h32.9v-13l-0.3-0.1c-1.4,2.4-4,4.1-6.9,4.1c0,0-7.8,0-14.6,0v-11.8h17.5v-8.7h-17.5v-11.7H174v-9h-37.2L136.7,449.6z M123.5,490.4
	c0,0-7.5,0-13.7,0v-41.1H94.7l-0.1,0.3c2.4,1.4,4.1,4,4.1,6.9c0,0,0,36.9,0,42.9h31.9v-13l-0.3-0.1
	C129,488.6,126.4,490.3,123.5,490.4z M271.6,474.2c2.4,1.4,4.1,4,4.1,6.9c0,0,0,4.8,0,9.1c-2.1,0.7-4.3,1.1-6.7,1.1
	c-12.7,0-19-9.1-19-17.1c0-2.8,0.8-5.7,2.2-8c3.2-5.5,9.5-9.3,16.9-9.3c7.4,0,13.8,3.8,16.9,9.4l0.3-0.1l0-11.4
	c-8.7-6.9-22.2-8.2-33.1-3c-9.2,4.4-14.2,12.8-14.2,22.2c0,9.7,5,18.2,14.3,22.7c4.4,2.1,9.3,3.2,14.1,3.2c6.8,0,13.7-2.1,18.9-6.1
	v-20h-14.5L271.6,474.2z M326.3,449.6c2.4,1.4,4.1,4,4.1,6.9c0,1.1,0,18.1,0,22.3c0,15.6-20.8,15.5-20.8,0.3l0-29.8h-15.1l-0.1,0.3
	c2.4,1.4,4.1,4,4.1,6.9c0,0,0,22.3,0,22.3s-0.1,4.1,1.5,8.6c1,2.6,2.4,4.8,4.3,6.6c1.8,1.9,4.1,3.3,6.7,4.3c2.6,1,5.6,1.6,8.9,1.6
	c3.3,0,6.3-0.5,8.9-1.6c2.6-1,4.9-2.5,6.8-4.3c1.9-1.9,3.3-4.1,4.3-6.6c1-2.5,1.5-5.3,1.5-8.3v-29.9h-15.1L326.3,449.6z
	 M202.4,479.4c0,0,6.8-17.8,6.9-18c0,0,0,0,0,0.1c0,0,0,0,0-0.1c0.1,0.2,6.9,18,6.9,18H202.4z M235.2,496.6
	c-1.2-1.5-1.6-2.6-2.5-4.3c-0.2-0.3-0.3-0.6-0.4-1l-17.5-42.1h-10.9l-17.7,42.5c-1,2-1.4,3.2-2.7,4.8c-1.3,1.7-3.1,2.5-3.1,2.5
	l0.1,0.3c0.7,0,1.6,0,1.6,0h9.7c1.7,0,3.4-1.1,4-2.6l3.6-9.3h20l3.6,9.3c0.6,1.5,2.2,2.6,4,2.6c0,0,10.6,0,11.3,0l0.1-0.3
	C238.2,499.1,236.5,498.3,235.2,496.6z M474.3,399.4c-2.1-0.9-4.3-1.4-6.6-2c-3.1-0.8-6.1-1.5-8.5-3c-3.3-2-1.9-6.3,1.3-7.7
	c2.3-1,5.1-1.2,8.1-0.7c4.4,0.8,8.2,3.2,10.4,6.5l1.2,1.8l0.4-0.1l0-12.1c0,0-0.8-0.7-1-0.8c-7.4-5.8-19.7-6.1-27.4-0.6
	c-5.8,4.1-7.4,10.5-4.4,17.5c2.5,5,7.8,6.8,12.9,8c1,0.2,2.1,0.4,3.1,0.6c2.1,0.4,7.3,1.8,7.7,5.5c0.4,3.9-2.5,5.7-4.6,6.5
	c-5.4,1.9-13.1-0.8-17.5-5.3c-1.7-1.7-2.6-3.8-3-5l-0.3,0.1v13.8c2.7,2.2,8.4,5.8,16.7,5.8c6.1,0,12.2-2.1,15.7-6.4
	c3-3.6,3.8-6.6,3.7-10.7C482.1,406,479,401.4,474.3,399.4z M419,377.7c2.4,1.4,4.1,3.9,4.1,6.8c0,0.3,0,24.9,0,24.9L398,379.1
	c-1-1.3-2.1-1.8-3.7-1.8h-10.1l-0.1,0.3c2.4,1.4,4.1,3.9,4.1,6.8c0,0.3,0,43.1,0,43.1h14.1l0.1-0.3c-1.6-1-4-3.2-4-7.7
	c0,0,0-23.6,0-24.2l25.1,30.2c1.2,1.4,2.2,1.9,4,1.9h5.8v-50.2h-14.2L419,377.7z M239.3,419.7v-42.3h-8.1c-1.7,0-3.2,0.3-4,1.9
	L212,407.4c-0.4,0.7-0.8,1.5-1.2,2.3c-0.1,0.2-0.2,0.3-0.2,0.5c-0.1-0.2-0.1-0.3-0.2-0.5c-0.4-0.8-0.7-1.6-1.1-2.3l-15.3-28.2
	c-0.8-1.6-2.3-1.9-4-1.9h-12.1l-0.1,0.3c2.4,1.4,4,3.9,4,6.8c0,0.3,0.1,43.1,0.1,43.1H196l0.1-0.3c-1.6-1-4-3.2-4-7.7l0-24.3
	c0,0,0-0.1,0-0.1l14.1,26.6h9.1l13.9-26.5v32.3h14.1l0.1-0.3C241.7,426.4,239.3,424.2,239.3,419.7z M366.4,409.5
	c-0.7,2-1.7,3.7-3,5.1c-1.3,1.4-2.9,2.4-4.8,3.2c-1.9,0.7-4,1.1-6.4,1.1s-4.6-0.4-6.5-1.1c-1.9-0.7-3.5-1.8-4.8-3.2
	c-1.3-1.4-2.3-3.1-3.1-5.1c-0.7-2-1.1-4.3-1.1-6.9s0.4-4.9,1.1-6.9c0.7-2,1.7-3.7,3.1-5.1c1.3-1.4,2.9-2.4,4.8-3.2
	c1.9-0.7,4.1-1.1,6.5-1.1c2.4,0,4.5,0.4,6.4,1.1c1.9,0.7,3.5,1.8,4.8,3.2c1.3,1.4,2.3,3.1,3,5.1c0.7,2,1.1,4.3,1.1,6.9
	C367.4,405.2,367.1,407.5,366.4,409.5z M379,402.6c0-3.7-0.7-7.1-1.9-10.2c-1.3-3.1-3.1-5.9-5.5-8.1c-2.3-2.3-5.2-4.1-8.5-5.4
	c-3.3-1.3-7-1.9-10.9-1.9c-4,0-7.7,0.6-11,1.9c-3.3,1.3-6.2,3.1-8.5,5.4c-2.4,2.3-4.2,5-5.5,8.2c-1.3,3.1-1.9,6.6-1.9,10.2
	s0.7,7.1,1.9,10.2c1.3,3.1,3.1,5.9,5.5,8.2c2.4,2.3,5.2,4.1,8.5,5.4c3.3,1.3,7,1.9,11,1.9c4,0,7.7-0.6,10.9-1.9
	c3.3-1.3,6.2-3.1,8.5-5.4c2.3-2.3,4.2-5,5.5-8.2C378.3,409.7,379,406.2,379,402.6z M0,402.6c0,9.8,5,18,14.4,22.5
	c4.5,2.1,9.3,3.2,14.1,3.2c6.8,0,13.7-2.2,18.9-6.3v-11.6l-0.4-0.1c-3.2,5.5-9.5,9.2-16.8,9.2c-12.7,0-19.1-9.1-19.1-17.1
	c0-2.8,0.8-5.7,2.2-8.1c3.2-5.5,9.6-9.3,16.9-9.3c7.4,0,13.8,3.9,17,9.5l0.3-0.1l0-11.4c-8.8-6.9-22.3-8.2-33.2-3
	C5,384.4,0,393.1,0,402.6z M105,419.7v-42.3H89.6l-0.1,0.3c2.4,1.4,4.1,3.9,4.1,6.8c0,0.3,0,13.8,0,13.8H71.3v-20.9H55.9l-0.1,0.4
	c2.4,1.4,4.1,4,4.1,6.9c0,0.3,0,43,0,43h15.4l0.1-0.3c-1.6-1-4-3.2-4-7.7v-13.3h22.3v21.2l15.3,0l0.1-0.3
	C107.4,426.4,105,424.2,105,419.7z M314.4,420v-42.6H299l-0.1,0.3c2.4,1.4,4.1,4,4.1,6.9c0,0.2,0,43,0,43l15.3,0l0.1-0.3
	C316.8,426.4,314.5,424.2,314.4,420z M280.9,397.1c-1.4,3.6-5.1,4.7-8.9,4.7h-6.3v-15.7h6.3C278.4,386.1,283.5,391,280.9,397.1z
	 M287.7,381.9c-4.3-3.4-9.7-4.5-15.7-4.5h-21.7l-0.1,0.3c2.4,1.4,4,3.9,4,6.8c0,0.2,0,0.5,0.1,0.7v42.4h15.4l0.1-0.3
	c-1.6-1-4-3.2-4-7.7v-9.2h6.3c8.1,0,16.2-2.5,19.5-10C294,394.4,293.1,386.2,287.7,381.9z M136.9,407.6c0,0,6.9-17.9,6.9-18
	c0,0,0,0,0,0.1l0-0.1c0.1,0.2,6.9,18,6.9,18H136.9z M169.7,424.9c-1.2-1.5-1.6-2.6-2.5-4.3c-0.2-0.3-0.3-0.6-0.4-1l-17.5-42.2h-11
	l-17.7,42.7c-1,2-1.4,3.2-2.7,4.8c-1.4,1.7-3.1,2.5-3.1,2.5l0.1,0.3c0.7,0,1.6,0,1.6,0h9.7c1.7,0,3.4-1.1,4-2.6l3.6-9.4h20.1
	l3.6,9.4c0.6,1.5,2.2,2.6,4,2.6c0,0,10.6,0,11.3,0l0.1-0.3C172.8,427.4,171.1,426.6,169.7,424.9z M103.7,96.5
	c2.6-2.4,4.8-3.5,4.8-3.5l8.4,28c0,0,1.1-19,1.8-28.2c0-0.4,0.4-0.7,0.8-0.6C124.4,92.9,134,96,134,96s-10.7-20.3-11.6-22.2
	c-0.1-0.1-0.1-0.2,0-0.4c1.3-7.5,3.9-14.6,5.6-22c4.2,1.6,8.2,3.5,12.3,5.3c1.2,0.5,2.4,1.1,3.6,1.6c0.2,0.1,0.4,0.3,0.4,0.6
	c-0.2,8.8-0.3,20.6-0.4,29c3.8-8.1,7.8-16.1,11.7-24.1c0.1-0.3,0.5-0.4,0.8-0.3c6.2,2.4,12.5,4.7,18.8,6.9
	c-3.2-6.3-6.9-15.6-10.4-22.1c-0.1-0.2-0.1-0.4,0-0.6c1.1-1.7,2.2-3.3,3.3-4.8c3.7-5.2,7.4-9.6,11.4-14.8c5,1.9,10.4,4.5,15.1,6.8
	c1.2,0.6,2.3,1.1,3.2,1.6c0.3,0.1,0.4,0.4,0.3,0.7c-1.8,7.7-3.8,19.2-5.6,26.6c6.6-6.4,12.9-13.1,19.4-19.7c0.2-0.2,0.5-0.2,0.7-0.1
	c7.6,4,15,8.3,22.6,12.5c-3.8-7.8-7.5-15.5-11.5-23.1c-0.1-0.3-0.1-0.6,0.2-0.8c5.8-4,11.6-7.8,17.4-11.7
	c5.8,3.9,11.6,7.7,17.4,11.7c0.3,0.2,0.3,0.5,0.2,0.8c-4.1,7.6-7.8,15.4-11.5,23.1c7.5-4.2,14.9-8.5,22.6-12.5
	c0.2-0.1,0.5-0.1,0.7,0.1c6.5,6.6,12.7,13.3,19.4,19.7c-1.8-7.4-3.9-18.9-5.6-26.6c-0.1-0.3,0.1-0.6,0.3-0.7
	c0.9-0.4,13.2-6.6,18.2-8.4c7.3,8.6,13.5,17.8,14.7,19.5c0.1,0.2,0.1,0.4,0,0.6c-3.4,7-7.2,15.8-10.4,22.1
	c6.3-2.2,12.5-4.5,18.8-6.9c0.3-0.1,0.6,0,0.8,0.3c3.9,8,7.8,16.1,11.7,24.1c0-8.5-0.1-20.2-0.4-29c0-0.3,0.1-0.5,0.4-0.6
	c1.2-0.5,11.6-5.2,15.9-6.8c1.7,7.4,4.3,14.5,5.6,22c0,0.1,0,0.2,0,0.4C358.8,75.7,348,96,348,96s9.6-3.1,14.4-3.8
	c0.4-0.1,0.8,0.2,0.8,0.6c0.7,9.2,1.8,28.2,1.8,28.2l8.4-28c0,0,2.2,1.1,4.8,3.5c1.7,1.6,2.7,2.8,3.2,3.6
	c-3.7,8.3-8.7,18.1-13.9,25.2c-2.7,3.6-5.4,6.7-8.6,9.5c-2.5,2.2-5.2,4.1-8.1,5.7c-5.7,3.2-12.4,6.2-15.4,7.6
	c-0.7,0.3-1.6-0.1-1.7-0.9l-4-23.2l-12.9,31.2c-0.1,0.3-0.4,0.6-0.8,0.7c-3.4,1-20.9,6.1-29.9,7.7c-1.2,0.2-23.7,3-31.7,3.6
	c-0.5,0-1-0.3-1.2-0.8c-4.1-10.3-12.2-30.1-12.2-30.1s-8.1,19.9-12.2,30.1c-0.2,0.5-0.7,0.8-1.2,0.8c-8-0.6-30.5-3.4-31.7-3.6
	c-8.9-1.7-26.5-6.8-29.9-7.7c-0.4-0.1-0.7-0.4-0.8-0.7L152.5,124l-4,23.2c-0.1,0.8-1,1.3-1.7,0.9c-3.7-1.6-14.3-6.4-19.2-9.8
	c-4.7-3.2-9-7.8-12.8-13c-5.3-7.2-10.3-17.1-14-25.5C101.2,99.1,102.2,97.9,103.7,96.5z M125.9,176.6l-8.1-33
	c-0.1-0.6,0.2-1.2,0.7-1.4l7.7-3.2c5.2,8.9,14.1,18,20,25.9c0.2,0.2,0.3,0.5,0.2,0.8c-0.6,8.9-1.3,17.8-1.4,26.9
	c5.1-3.4,9.9-6.1,15.3-9.1c0.5-0.3,1.1-0.2,1.5,0.3c8.3,9.4,16.9,17.9,25.9,26.8c-4.3-11.4-8.1-21.4-12.6-32.8
	c-0.2-0.6,0-1.3,0.6-1.6c6.7-3.4,13-6.6,19.9-10.1c8.1,6.2,22.1,16.4,25.4,18.8c0.4,0.3,0.6,0.9,0.5,1.4l-9.5,30.6l28.4-18.4
	c0.4-0.3,0.9-0.3,1.4,0l28.4,18.4l-9.5-30.6c-0.2-0.5,0-1.1,0.5-1.4c3.3-2.4,17.3-12.6,25.4-18.8c6.8,3.4,13.1,6.6,19.9,10.1
	c0.6,0.3,0.8,1,0.6,1.6c-4.5,11.3-8.3,21.3-12.6,32.8c9-8.9,17.6-17.3,25.9-26.8c0.4-0.4,1-0.6,1.5-0.3c5.4,3,10.1,5.7,15.3,9.1
	c-0.2-9.1-0.8-18-1.4-26.9c0-0.3,0.1-0.6,0.2-0.8c6-7.9,14.9-16.9,20-25.9l7.7,3.2c0.6,0.2,0.9,0.9,0.7,1.4l-8.1,33
	c0,0,14.2-27.2,21.3-47.9c12.1-35.4,10.4-44.1,10.5-44.7c0,0,0,0,0,0c-0.3,0.7-2.5,6.8-5.9,14.6c0-4.1-0.8-12.9-5.9-25
	c0-0.1,0-0.2,0-0.3c2-9.2,4.6-27.2,4.6-27.2s-7.6,10.3-12.3,15.7c-0.2,0.3-0.7,0.3-0.9,0c-3.5-3.6-8.9-7.9-13-11.2
	c-4.5-3.6-11.3-7.5-16.3-10.2c-0.2-0.1-0.3-0.3-0.3-0.5c-0.4-8.3-0.8-16.6-1.2-24.9c-3.8,6.4-7.7,12.6-11.6,18.9
	c-0.2,0.3-0.5,0.4-0.7,0.3c-6.3-2.4-14.4-5.1-21.2-6.8c-6.9-1.8-15.1-3.5-21.8-4.7c-0.2,0-0.4-0.2-0.5-0.4c-1.8-6.4-4.3-15.3-6.2-22
	c-3.1,6.9-6.3,13.3-9.6,19.9c-0.1,0.2-0.4,0.4-0.6,0.3c-7.7-0.6-15.9-0.7-23.6-0.7c-7.7-0.1-15.9,0-23.6,0.7c-0.3,0-0.5-0.1-0.6-0.3
	c-3.3-6.7-6.5-13.1-9.6-19.9c-1.8,6.7-4.3,15.6-6.2,22c-0.1,0.2-0.3,0.4-0.5,0.4c-6.6,1.2-14.9,3-21.8,4.7
	c-6.9,1.7-14.9,4.4-21.2,6.8c-0.3,0.1-0.6,0-0.7-0.3c-3.9-6.3-7.8-12.6-11.6-18.9c-0.4,8.3-0.8,16.6-1.2,24.9c0,0.2-0.1,0.4-0.3,0.5
	c-5,2.6-11.8,6.5-16.3,10.2c-4.1,3.4-9.6,7.6-13,11.2c-0.3,0.3-0.7,0.3-0.9,0c-4.7-5.4-12.3-15.7-12.3-15.7s2.6,18.1,4.6,27.2
	c0,0.1,0,0.2,0,0.3c-4.9,11.6-5.8,20.2-5.9,24.5c-3.3-7.5-5.4-13.3-5.7-14c0,0,0,0,0,0c0,0.6-1.7,9.3,10.5,44.7
	C111.7,149.4,125.9,176.6,125.9,176.6z M242.2,356.9C242.2,356.9,242.2,356.9,242.2,356.9C242.2,356.9,242.2,356.9,242.2,356.9
	L242.2,356.9z M326.9,338.6v10c0,1.6,1.3,2.9,2.9,2.9c1.6,0,2.9-1.3,2.9-2.9v-10c0-10.1-7.2-17.2-17.5-17.2c-9.7,0-17,7.4-17,17.2
	v17.7h5.9v-17.7c0-6.9,4.6-11.6,11.5-11.6C322,327.1,326.9,332.2,326.9,338.6z M358.4,326.9c3.9,0,6.2,1.2,7.2,2
	c0.5,0.3,1,0.5,1.6,0.5c1.5,0,2.7-1.2,2.7-2.7c0-0.9-0.4-1.7-1.1-2.2c-2.2-1.6-4.7-3.1-10.4-3.1c-7.7,0-13.3,4.3-13.3,10.3
	c0,6.2,4.5,10.2,11.4,10.2h3.9c2.4,0,5.3,0.8,5.3,4.5c0,3-3,5.1-7.2,5.1c-3.9,0-7.2-1.1-10-3.4l-0.4-0.3l-3.9,4.1l0.4,0.4
	c3.7,3,8.6,4.7,13.8,4.7c7.9,0,13.2-4.2,13.2-10.6c0-6-4.5-10-11.3-10h-3.9c-3.4,0-5.4-1.8-5.4-4.8
	C351.1,328.9,354.1,326.9,358.4,326.9z M147.9,347.4l-7.8-17.2c-0.5-1-1.5-1.6-2.5-1.6c-1.1,0-2,0.5-2.5,1.4l-7.7,17.4l-10.3-25.3
	h-6.6l14.4,33.4c0.3,0.9,1.4,1.5,2.5,1.5c0.9,0,2.1-0.5,2.5-1.5l7.7-17.8l7.8,17.8c0.4,0.8,1.5,1.5,2.4,1.5c1.1,0,2.1-0.6,2.5-1.5
	l14.4-33.4h-6.6L147.9,347.4z M343.8,309.2c-1.1,0-2.1,0.7-2.5,1.8l-5.8,14.3h6l4.9-12.1c0.1-0.4,0.2-0.9,0.2-1.2
	C346.6,310.4,345.4,309.2,343.8,309.2z M275.9,321.5c-10,0-18.1,8-18.1,17.8c0,9.8,8.1,17.8,18.1,17.8c5.9,0,11.4-3.1,14.7-8.4
	l0.3-0.5l-5-3.2l-0.3,0.5c-1.9,3.5-5.7,5.8-9.7,5.8c-6.7,0-12.1-5.5-12.1-12.2c0-6.7,5.4-12.1,12.1-12.1c5.3,0,9.8,3.8,11,9.2h-11.4
	c-1.6,0-2.7,1.2-2.7,2.8c0,1.5,1.2,2.7,2.7,2.7h17.8v-2.7C293.4,329.4,285.6,321.5,275.9,321.5z M249.9,356.7c1.6,0,2.9-1.3,2.9-2.9
	v-19c0-7.4-6-13.4-13.3-13.4c-4,0-7.9,1.9-10.3,5.1c-2.5-3.2-6.4-5.1-10.4-5.1c-7.4,0-13.3,6-13.3,13.4v21.5h5.9v-21.5
	c0-4.2,3.4-7.7,7.5-7.7c4.1,0,7.5,3.5,7.5,7.7l-0.1,14c0,1.6,1.3,2.9,2.9,2.9c1.6,0,2.9-1.3,2.9-2.9v-14c0-4.2,3.4-7.7,7.5-7.7
	c4.1,0,7.5,3.5,7.5,7.7v19C247,355.5,248.3,356.7,249.9,356.7z M182.5,327.1c3.4,0,6,1.4,7.5,2.6c0.7,0.5,1.4,0.8,2.1,0.8
	c1.7,0,2.8-1.5,2.8-2.9c0-0.8-0.4-1.7-1.1-2.3c-2.2-1.8-6.4-3.9-11.3-3.9c-10,0-18.1,8-18.1,17.8c0,9.8,8.1,17.8,18.1,17.8
	c10,0,18.1-8,18.1-17.8c0-2.7-0.6-5.4-1.9-7.9l-0.2-0.5l-5.3,2.6l0.2,0.5c0.8,1.5,1.2,3.4,1.2,5.3c0,6.8-5.3,12.2-12,12.2
	c-6.8,0-12.1-5.3-12.1-12.2C170.4,332.4,175.7,327.1,182.5,327.1z M200.6,280.2c0.4-3.3-0.6-6.4-3.1-9.4L186,256.6l-5.7,4.7
	l10.6,13.1c1.8,2.3,2.4,3.5,2.2,5.4c-0.1,1.5-1,3-2.4,4.1c-1.4,1.2-3.1,1.7-4.5,1.6c-1.8-0.2-3-1-4.8-3.3l-10.6-13.1l-5.7,4.7
	l11.5,14.3c2.5,3,5.2,4.6,8.5,4.9c0.4,0,0.8,0.1,1.2,0.1c3.2,0,6.2-1.1,9-3.4C198.4,286.9,200.2,283.9,200.6,280.2z M241.2,280.8
	c-21.6,0-41.2,9.7-53.2,24.1l3.8,4.7c10.9-13.6,29.3-22.9,49.4-22.9c20.1,0,38.5,9.3,49.4,22.9l3.8-4.7
	C282.4,290.5,262.8,280.8,241.2,280.8z M299.4,298.7l8.7-30.2c0.3-1.1,0.6-2.6-1.2-4l-1.1-0.9c-1.8-1.4-3.1-0.8-4.2-0.1l-26.4,17.1
	l6.9,3.9l16.8-10.9l-2.9,9.8l-2.5-1.9l-4.4,3.2l5.5,4.1l-1.3,4.4L299.4,298.7z M265.7,252.6l11.1,2.9l1.8-6.8l-11.4-3
	c-6.3-1.6-10.5,0.7-12.1,6.6l-4.7,18c-0.2,0.8-0.1,1.6,0.3,2.3c0.4,0.7,1,1.1,1.9,1.3l4.2,1.1l3-11.7l12.8,3.3l1.7-6.7l-12.8-3.3
	l0.5-1.9C262.7,252.2,263.4,252,265.7,252.6z M317.1,263.2c2.2,1.9,4.2,3.8,6.2,5.8l3.9-4.9c-1.9-2-4-3.8-6.1-5.7
	c-21.9-19-50.3-29.4-79.9-29.4s-58,10.5-79.9,29.4c-2.1,1.8-4.1,3.7-6.1,5.7l3.9,4.9c2-2,4-4,6.2-5.8c20.8-18,47.7-27.9,75.9-27.9
	C269.3,235.3,296.3,245.2,317.1,263.2z M229.7,242.6l-18.5,3.8c-0.8,0.2-1.5,0.6-1.9,1.2c-0.4,0.6-0.5,1.4-0.4,2.3l3.7,18.2
	c0.6,3,1.9,5.1,3.9,6.4c1.3,0.8,2.9,1.2,4.8,1.2c0.9,0,1.9-0.1,3-0.3l11.6-2.4l-1.4-6.9l-11.3,2.3c-2.3,0.5-3.1,0.2-3.6-2.4l-0.4-2
	l13-2.7l-1.4-6.8l-13,2.7l-1-4.9l14.2-2.9L229.7,242.6z"/>
</svg>
